# xmcd
#
# Track frame offsets:
#	150
#	750
#	17523
#	23725
#	40998
#	49276
#	65513
#	68673
#	85925
#	88595
#	101913
#	107809
#	124852
#	126650
#	142415
#	146405
#	150867
#	165379
#	168180
#	188852
#	191022
#	202184
#	206589
#	223848
#
# Disc length: 3257 seconds
#
# Revision: 0
# Processed by: cddbd v1.5.2PL0 Copyright (c) Steve Scherf et al.
# Submitted via: EasyCDDAExtractor 12.0.1.1
#
DISCID=580cb718
DTITLE=Lee Ann Womack - iTunes Originals - Lee Ann Womack
DYEAR=1900
DGENRE=Country
TTITLE0=iTunes Originals
TTITLE1=He Oughta Know That By Now
TTITLE2=The First 17 Years of My Life
TTITLE3=Am I the Only Thing That You've Done Wrong
TTITLE4=A Really Cool Way to Launch My Career
TTITLE5=Never Again, Again (iTunes Originals Version)
TTITLE6=It'll Be Your First #1
TTITLE7=The Fool (iTunes Originals Version)
TTITLE8=One for the Girls
TTITLE9=I'll Think of a Reason Later (iTunes Originals Version)
TTITLE10=This Time It Was Personal
TTITLE11=I Hope You Dance (iTunes Originals Version)
TTITLE12=I Love Great Melodies
TTITLE13=Does My Ring Burn Your Finger
TTITLE14=A Very, Very Good Person
TTITLE15=You Better Sit Down
TTITLE16=I May Hate Myself In the Morning (iTunes Originals Version)
TTITLE17=Patsy In Blue
TTITLE18=She's Got You (iTunes Originals Version)
TTITLE19=Get a Key and Cut It
TTITLE20=Someone I Used to Know (Non-Album Version)
TTITLE21=I Intend to Have More Fun
TTITLE22=Something Worth Leaving Behind
TTITLE23=Mendocino County Line
EXTD=
EXTT0=
EXTT1=
EXTT2=
EXTT3=
EXTT4=
EXTT5=
EXTT6=
EXTT7=
EXTT8=
EXTT9=
EXTT10=
EXTT11=
EXTT12=
EXTT13=
EXTT14=
EXTT15=
EXTT16=
EXTT17=
EXTT18=
EXTT19=
EXTT20=
EXTT21=
EXTT22=
EXTT23=
PLAYORDER=
